solid IMU slider
   facet normal 0.000000e+00 -1.000000e+00 0.000000e+00
      outer loop
         vertex 4.950000e+00 -3.400000e+00 1.300000e+01
         vertex 4.950000e+00 -3.400000e+00 1.800000e+01
         vertex -4.950000e+00 -3.400000e+00 1.300000e+01
      endloop
   endfacet
   facet normal 0.000000e+00 -1.000000e+00 0.000000e+00
      outer loop
         vertex -4.950000e+00 -3.400000e+00 1.300000e+01
         vertex 4.950000e+00 -3.400000e+00 1.800000e+01
         vertex -4.950000e+00 -3.400000e+00 1.800000e+01
      endloop
   endfacet
   facet normal 1.000000e+00 0.000000e+00 0.000000e+00
      outer loop
         vertex 2.425000e+00 6.000000e-01 1.800000e+01
         vertex 2.425000e+00 1.000000e-01 1.800000e+01
         vertex 2.425000e+00 6.000000e-01 0.000000e+00
      endloop
   endfacet
   facet normal 1.000000e+00 0.000000e+00 0.000000e+00
      outer loop
         vertex 2.425000e+00 6.000000e-01 0.000000e+00
         vertex 2.425000e+00 1.000000e-01 1.800000e+01
         vertex 2.425000e+00 1.000000e-01 0.000000e+00
      endloop
   endfacet
   facet normal 0.000000e+00 1.000000e+00 0.000000e+00
      outer loop
         vertex 2.425000e+00 6.000000e-01 0.000000e+00
         vertex 1.025000e+00 6.000000e-01 0.000000e+00
         vertex 1.025000e+00 6.000000e-01 2.000000e+00
      endloop
   endfacet
   facet normal 0.000000e+00 1.000000e+00 -0.000000e+00
      outer loop
         vertex -1.075000e+00 6.000000e-01 0.000000e+00
         vertex -2.475000e+00 6.000000e-01 0.000000e+00
         vertex -1.075000e+00 6.000000e-01 2.000000e+00
      endloop
   endfacet
   facet normal 0.000000e+00 1.000000e+00 0.000000e+00
      outer loop
         vertex -1.075000e+00 6.000000e-01 2.000000e+00
         vertex -2.475000e+00 6.000000e-01 0.000000e+00
         vertex -2.475000e+00 6.000000e-01 1.800000e+01
      endloop
   endfacet
   facet normal 0.000000e+00 1.000000e+00 -0.000000e+00
      outer loop
         vertex -1.075000e+00 6.000000e-01 2.000000e+00
         vertex -2.475000e+00 6.000000e-01 1.800000e+01
         vertex 1.025000e+00 6.000000e-01 2.000000e+00
      endloop
   endfacet
   facet normal 0.000000e+00 1.000000e+00 -0.000000e+00
      outer loop
         vertex 1.025000e+00 6.000000e-01 2.000000e+00
         vertex -2.475000e+00 6.000000e-01 1.800000e+01
         vertex 2.425000e+00 6.000000e-01 1.800000e+01
      endloop
   endfacet
   facet normal -0.000000e+00 1.000000e+00 0.000000e+00
      outer loop
         vertex 1.025000e+00 6.000000e-01 2.000000e+00
         vertex 2.425000e+00 6.000000e-01 1.800000e+01
         vertex 2.425000e+00 6.000000e-01 0.000000e+00
      endloop
   endfacet
   facet normal -1.000000e+00 0.000000e+00 0.000000e+00
      outer loop
         vertex -2.475000e+00 1.000000e-01 1.800000e+01
         vertex -2.475000e+00 6.000000e-01 1.800000e+01
         vertex -2.475000e+00 1.000000e-01 0.000000e+00
      endloop
   endfacet
   facet normal -1.000000e+00 0.000000e+00 0.000000e+00
      outer loop
         vertex -2.475000e+00 1.000000e-01 0.000000e+00
         vertex -2.475000e+00 6.000000e-01 1.800000e+01
         vertex -2.475000e+00 6.000000e-01 0.000000e+00
      endloop
   endfacet
   facet normal -8.164827e-01 5.773699e-01 0.000000e+00
      outer loop
         vertex -4.950000e+00 -3.400000e+00 1.300000e+01
         vertex -4.950000e+00 -3.400000e+00 1.800000e+01
         vertex -3.535714e+00 -1.400000e+00 1.300000e+01
      endloop
   endfacet
   facet normal -8.164827e-01 5.773699e-01 2.730295e-09
      outer loop
         vertex -3.535714e+00 -1.400000e+00 1.300000e+01
         vertex -4.950000e+00 -3.400000e+00 1.800000e+01
         vertex -2.475000e+00 1.000000e-01 1.800000e+01
      endloop
   endfacet
   facet normal -8.164827e-01 5.773699e-01 0.000000e+00
      outer loop
         vertex -3.535714e+00 -1.400000e+00 1.300000e+01
         vertex -2.475000e+00 1.000000e-01 1.800000e+01
         vertex -3.535714e+00 -1.400000e+00 3.700000e+00
      endloop
   endfacet
   facet normal -8.164827e-01 5.773699e-01 0.000000e+00
      outer loop
         vertex -3.535714e+00 -1.400000e+00 3.700000e+00
         vertex -2.475000e+00 1.000000e-01 1.800000e+01
         vertex -2.475000e+00 1.000000e-01 0.000000e+00
      endloop
   endfacet
   facet normal -8.164827e-01 5.773699e-01 -6.456776e-09
      outer loop
         vertex -3.535714e+00 -1.400000e+00 3.700000e+00
         vertex -2.475000e+00 1.000000e-01 0.000000e+00
         vertex -4.950000e+00 -3.400000e+00 3.700000e+00
      endloop
   endfacet
   facet normal -8.164827e-01 5.773699e-01 0.000000e+00
      outer loop
         vertex -4.950000e+00 -3.400000e+00 3.700000e+00
         vertex -2.475000e+00 1.000000e-01 0.000000e+00
         vertex -4.950000e+00 -3.400000e+00 0.000000e+00
      endloop
   endfacet
   facet normal 0.000000e+00 -1.000000e+00 0.000000e+00
      outer loop
         vertex -4.950000e+00 -3.400000e+00 3.700000e+00
         vertex -4.950000e+00 -3.400000e+00 0.000000e+00
         vertex 4.950000e+00 -3.400000e+00 3.700000e+00
      endloop
   endfacet
   facet normal 0.000000e+00 -1.000000e+00 -0.000000e+00
      outer loop
         vertex 4.950000e+00 -3.400000e+00 3.700000e+00
         vertex -4.950000e+00 -3.400000e+00 0.000000e+00
         vertex 4.950000e+00 -3.400000e+00 0.000000e+00
      endloop
   endfacet
   facet normal 8.109846e-01 5.850674e-01 0.000000e+00
      outer loop
         vertex 4.950000e+00 -3.400000e+00 3.700000e+00
         vertex 4.950000e+00 -3.400000e+00 0.000000e+00
         vertex 3.507143e+00 -1.400000e+00 3.700000e+00
      endloop
   endfacet
   facet normal 8.109846e-01 5.850675e-01 -1.117649e-08
      outer loop
         vertex 3.507143e+00 -1.400000e+00 3.700000e+00
         vertex 4.950000e+00 -3.400000e+00 0.000000e+00
         vertex 2.425000e+00 1.000000e-01 0.000000e+00
      endloop
   endfacet
   facet normal 8.109846e-01 5.850675e-01 -0.000000e+00
      outer loop
         vertex 3.507143e+00 -1.400000e+00 3.700000e+00
         vertex 2.425000e+00 1.000000e-01 0.000000e+00
         vertex 3.507143e+00 -1.400000e+00 1.300000e+01
      endloop
   endfacet
   facet normal 8.109846e-01 5.850675e-01 0.000000e+00
      outer loop
         vertex 3.507143e+00 -1.400000e+00 1.300000e+01
         vertex 2.425000e+00 1.000000e-01 0.000000e+00
         vertex 2.425000e+00 1.000000e-01 1.800000e+01
      endloop
   endfacet
   facet normal 8.109846e-01 5.850674e-01 1.447355e-08
      outer loop
         vertex 3.507143e+00 -1.400000e+00 1.300000e+01
         vertex 2.425000e+00 1.000000e-01 1.800000e+01
         vertex 4.950000e+00 -3.400000e+00 1.300000e+01
      endloop
   endfacet
   facet normal 8.109846e-01 5.850675e-01 -0.000000e+00
      outer loop
         vertex 4.950000e+00 -3.400000e+00 1.300000e+01
         vertex 2.425000e+00 1.000000e-01 1.800000e+01
         vertex 4.950000e+00 -3.400000e+00 1.800000e+01
      endloop
   endfacet
   facet normal 0.000000e+00 0.000000e+00 1.000000e+00
      outer loop
         vertex -4.950000e+00 -3.400000e+00 1.800000e+01
         vertex 4.950000e+00 -3.400000e+00 1.800000e+01
         vertex 2.425000e+00 1.000000e-01 1.800000e+01
      endloop
   endfacet
   facet normal 0.000000e+00 0.000000e+00 1.000000e+00
      outer loop
         vertex 2.425000e+00 6.000000e-01 1.800000e+01
         vertex -2.475000e+00 6.000000e-01 1.800000e+01
         vertex 2.425000e+00 1.000000e-01 1.800000e+01
      endloop
   endfacet
   facet normal 0.000000e+00 0.000000e+00 1.000000e+00
      outer loop
         vertex 2.425000e+00 1.000000e-01 1.800000e+01
         vertex -2.475000e+00 6.000000e-01 1.800000e+01
         vertex -2.475000e+00 1.000000e-01 1.800000e+01
      endloop
   endfacet
   facet normal 0.000000e+00 0.000000e+00 1.000000e+00
      outer loop
         vertex 2.425000e+00 1.000000e-01 1.800000e+01
         vertex -2.475000e+00 1.000000e-01 1.800000e+01
         vertex -4.950000e+00 -3.400000e+00 1.800000e+01
      endloop
   endfacet
   facet normal 0.000000e+00 0.000000e+00 -1.000000e+00
      outer loop
         vertex -2.475000e+00 1.000000e-01 0.000000e+00
         vertex -2.475000e+00 6.000000e-01 0.000000e+00
         vertex -1.075000e+00 6.000000e-01 0.000000e+00
      endloop
   endfacet
   facet normal 0.000000e+00 -0.000000e+00 -1.000000e+00
      outer loop
         vertex -2.475000e+00 1.000000e-01 0.000000e+00
         vertex -1.075000e+00 6.000000e-01 0.000000e+00
         vertex -4.950000e+00 -3.400000e+00 0.000000e+00
      endloop
   endfacet
   facet normal 0.000000e+00 0.000000e+00 -1.000000e+00
      outer loop
         vertex -4.950000e+00 -3.400000e+00 0.000000e+00
         vertex -1.075000e+00 6.000000e-01 0.000000e+00
         vertex -2.075000e+00 -1.400000e+00 0.000000e+00
      endloop
   endfacet
   facet normal 0.000000e+00 0.000000e+00 -1.000000e+00
      outer loop
         vertex -4.950000e+00 -3.400000e+00 0.000000e+00
         vertex -2.075000e+00 -1.400000e+00 0.000000e+00
         vertex 4.950000e+00 -3.400000e+00 0.000000e+00
      endloop
   endfacet
   facet normal 0.000000e+00 0.000000e+00 -1.000000e+00
      outer loop
         vertex 4.950000e+00 -3.400000e+00 0.000000e+00
         vertex -2.075000e+00 -1.400000e+00 0.000000e+00
         vertex 2.025000e+00 -1.400000e+00 0.000000e+00
      endloop
   endfacet
   facet normal 0.000000e+00 0.000000e+00 -1.000000e+00
      outer loop
         vertex 4.950000e+00 -3.400000e+00 0.000000e+00
         vertex 2.025000e+00 -1.400000e+00 0.000000e+00
         vertex 2.425000e+00 1.000000e-01 0.000000e+00
      endloop
   endfacet
   facet normal -0.000000e+00 0.000000e+00 -1.000000e+00
      outer loop
         vertex 2.425000e+00 1.000000e-01 0.000000e+00
         vertex 2.025000e+00 -1.400000e+00 0.000000e+00
         vertex 1.025000e+00 6.000000e-01 0.000000e+00
      endloop
   endfacet
   facet normal 0.000000e+00 0.000000e+00 -1.000000e+00
      outer loop
         vertex 2.425000e+00 1.000000e-01 0.000000e+00
         vertex 1.025000e+00 6.000000e-01 0.000000e+00
         vertex 2.425000e+00 6.000000e-01 0.000000e+00
      endloop
   endfacet
   facet normal 0.000000e+00 0.000000e+00 -1.000000e+00
      outer loop
         vertex 4.950000e+00 -3.400000e+00 1.300000e+01
         vertex -4.950000e+00 -3.400000e+00 1.300000e+01
         vertex 3.507143e+00 -1.400000e+00 1.300000e+01
      endloop
   endfacet
   facet normal -0.000000e+00 0.000000e+00 -1.000000e+00
      outer loop
         vertex 3.507143e+00 -1.400000e+00 1.300000e+01
         vertex -4.950000e+00 -3.400000e+00 1.300000e+01
         vertex -3.535714e+00 -1.400000e+00 1.300000e+01
      endloop
   endfacet
   facet normal -0.000000e+00 -1.000000e+00 -0.000000e+00
      outer loop
         vertex 3.507143e+00 -1.400000e+00 1.300000e+01
         vertex -3.535714e+00 -1.400000e+00 1.300000e+01
         vertex 3.507143e+00 -1.400000e+00 3.700000e+00
      endloop
   endfacet
   facet normal 0.000000e+00 -1.000000e+00 0.000000e+00
      outer loop
         vertex 3.507143e+00 -1.400000e+00 3.700000e+00
         vertex -3.535714e+00 -1.400000e+00 1.300000e+01
         vertex -3.535714e+00 -1.400000e+00 3.700000e+00
      endloop
   endfacet
   facet normal 0.000000e+00 0.000000e+00 1.000000e+00
      outer loop
         vertex 3.507143e+00 -1.400000e+00 3.700000e+00
         vertex -3.535714e+00 -1.400000e+00 3.700000e+00
         vertex 4.950000e+00 -3.400000e+00 3.700000e+00
      endloop
   endfacet
   facet normal 0.000000e+00 0.000000e+00 1.000000e+00
      outer loop
         vertex 4.950000e+00 -3.400000e+00 3.700000e+00
         vertex -3.535714e+00 -1.400000e+00 3.700000e+00
         vertex -4.950000e+00 -3.400000e+00 3.700000e+00
      endloop
   endfacet
   facet normal 8.944272e-01 -4.472136e-01 0.000000e+00
      outer loop
         vertex -1.075000e+00 6.000000e-01 2.000000e+00
         vertex -2.075000e+00 -1.400000e+00 2.000000e+00
         vertex -1.075000e+00 6.000000e-01 -8.673617e-16
      endloop
   endfacet
   facet normal 8.944272e-01 -4.472136e-01 0.000000e+00
      outer loop
         vertex -1.075000e+00 6.000000e-01 -8.673617e-16
         vertex -2.075000e+00 -1.400000e+00 2.000000e+00
         vertex -2.075000e+00 -1.400000e+00 -8.673617e-16
      endloop
   endfacet
   facet normal -0.000000e+00 1.000000e+00 0.000000e+00
      outer loop
         vertex -2.075000e+00 -1.400000e+00 2.000000e+00
         vertex 2.025000e+00 -1.400000e+00 2.000000e+00
         vertex -2.075000e+00 -1.400000e+00 0.000000e+00
      endloop
   endfacet
   facet normal 0.000000e+00 1.000000e+00 0.000000e+00
      outer loop
         vertex -2.075000e+00 -1.400000e+00 0.000000e+00
         vertex 2.025000e+00 -1.400000e+00 2.000000e+00
         vertex 2.025000e+00 -1.400000e+00 0.000000e+00
      endloop
   endfacet
   facet normal -8.944272e-01 -4.472136e-01 -0.000000e+00
      outer loop
         vertex 2.025000e+00 -1.400000e+00 2.000000e+00
         vertex 1.025000e+00 6.000000e-01 2.000000e+00
         vertex 2.025000e+00 -1.400000e+00 0.000000e+00
      endloop
   endfacet
   facet normal -8.944272e-01 -4.472136e-01 0.000000e+00
      outer loop
         vertex 2.025000e+00 -1.400000e+00 0.000000e+00
         vertex 1.025000e+00 6.000000e-01 2.000000e+00
         vertex 1.025000e+00 6.000000e-01 0.000000e+00
      endloop
   endfacet
   facet normal -0.000000e+00 -0.000000e+00 -1.000000e+00
      outer loop
         vertex 1.025000e+00 6.000000e-01 2.000000e+00
         vertex 2.025000e+00 -1.400000e+00 2.000000e+00
         vertex -1.075000e+00 6.000000e-01 2.000000e+00
      endloop
   endfacet
   facet normal 0.000000e+00 -0.000000e+00 -1.000000e+00
      outer loop
         vertex -1.075000e+00 6.000000e-01 2.000000e+00
         vertex 2.025000e+00 -1.400000e+00 2.000000e+00
         vertex -2.075000e+00 -1.400000e+00 2.000000e+00
      endloop
   endfacet
endsolid