solid IMU holder base v2
   facet normal 0.000000e+00 -1.224647e-16 1.000000e+00
      outer loop
         vertex 1.000000e+01 -1.550000e+01 -1.898202e-15
         vertex 0.000000e+00 -1.700000e+01 -2.081900e-15
         vertex 3.400000e+01 -1.700000e+01 -2.081900e-15
      endloop
   endfacet
   facet normal 0.000000e+00 -1.224647e-16 1.000000e+00
      outer loop
         vertex 2.000000e+00 0.000000e+00 0.000000e+00
         vertex 0.000000e+00 0.000000e+00 0.000000e+00
         vertex 2.000000e+00 -1.200000e+01 -1.469576e-15
      endloop
   endfacet
   facet normal -2.727677e-23 -1.224647e-16 1.000000e+00
      outer loop
         vertex 2.000000e+00 -1.200000e+01 -1.469576e-15
         vertex 0.000000e+00 0.000000e+00 0.000000e+00
         vertex 0.000000e+00 -1.700000e+01 -2.081900e-15
      endloop
   endfacet
   facet normal 1.133676e-24 -1.224647e-16 1.000000e+00
      outer loop
         vertex 0.000000e+00 -1.700000e+01 -2.081900e-15
         vertex 1.000000e+01 -1.550000e+01 -1.898202e-15
         vertex 2.000000e+00 -1.200000e+01 -1.469576e-15
      endloop
   endfacet
   facet normal -9.990524e-25 -1.224647e-16 1.000000e+00
      outer loop
         vertex 2.000000e+00 -1.200000e+01 -1.469576e-15
         vertex 1.000000e+01 -1.550000e+01 -1.898202e-15
         vertex 1.000000e+01 -1.350000e+01 -1.653273e-15
      endloop
   endfacet
   facet normal 0.000000e+00 -1.224647e-16 1.000000e+00
      outer loop
         vertex 2.000000e+00 -1.200000e+01 -1.469576e-15
         vertex 1.000000e+01 -1.350000e+01 -1.653273e-15
         vertex 3.400000e+01 -1.200000e+01 -1.469576e-15
      endloop
   endfacet
   facet normal 0.000000e+00 -1.224647e-16 1.000000e+00
      outer loop
         vertex 3.400000e+01 -1.200000e+01 -1.469576e-15
         vertex 1.000000e+01 -1.350000e+01 -1.653273e-15
         vertex 3.000000e+01 -1.350000e+01 -1.653273e-15
      endloop
   endfacet
   facet normal 0.000000e+00 -1.224647e-16 1.000000e+00
      outer loop
         vertex 3.400000e+01 -1.200000e+01 -1.469576e-15
         vertex 3.000000e+01 -1.350000e+01 -1.653273e-15
         vertex 3.400000e+01 -1.700000e+01 -2.081900e-15
      endloop
   endfacet
   facet normal -4.662242e-24 -1.224647e-16 1.000000e+00
      outer loop
         vertex 3.400000e+01 -1.700000e+01 -2.081900e-15
         vertex 3.000000e+01 -1.350000e+01 -1.653273e-15
         vertex 3.000000e+01 -1.550000e+01 -1.898202e-15
      endloop
   endfacet
   facet normal 0.000000e+00 -1.224647e-16 1.000000e+00
      outer loop
         vertex 3.400000e+01 -1.700000e+01 -2.081900e-15
         vertex 3.000000e+01 -1.550000e+01 -1.898202e-15
         vertex 1.000000e+01 -1.550000e+01 -1.898202e-15
      endloop
   endfacet
   facet normal -0.000000e+00 0.000000e+00 -1.000000e+00
      outer loop
         vertex 3.400000e+01 -1.200000e+01 -2.000000e+01
         vertex 1.000000e+01 -1.350000e+01 -2.000000e+01
         vertex 2.000000e+00 -1.200000e+01 -2.000000e+01
      endloop
   endfacet
   facet normal 0.000000e+00 0.000000e+00 -1.000000e+00
      outer loop
         vertex 2.000000e+00 -1.200000e+01 -2.000000e+01
         vertex 1.000000e+01 -1.350000e+01 -2.000000e+01
         vertex 1.000000e+01 -1.550000e+01 -2.000000e+01
      endloop
   endfacet
   facet normal 0.000000e+00 0.000000e+00 -1.000000e+00
      outer loop
         vertex 0.000000e+00 -1.700000e+01 -2.000000e+01
         vertex 0.000000e+00 0.000000e+00 -2.000000e+01
         vertex 2.000000e+00 0.000000e+00 -2.000000e+01
      endloop
   endfacet
   facet normal 0.000000e+00 -0.000000e+00 -1.000000e+00
      outer loop
         vertex 2.000000e+00 0.000000e+00 -2.000000e+01
         vertex 2.000000e+00 -1.200000e+01 -2.000000e+01
         vertex 0.000000e+00 -1.700000e+01 -2.000000e+01
      endloop
   endfacet
   facet normal 0.000000e+00 0.000000e+00 -1.000000e+00
      outer loop
         vertex 0.000000e+00 -1.700000e+01 -2.000000e+01
         vertex 2.000000e+00 -1.200000e+01 -2.000000e+01
         vertex 1.000000e+01 -1.550000e+01 -2.000000e+01
      endloop
   endfacet
   facet normal 0.000000e+00 0.000000e+00 -1.000000e+00
      outer loop
         vertex 0.000000e+00 -1.700000e+01 -2.000000e+01
         vertex 1.000000e+01 -1.550000e+01 -2.000000e+01
         vertex 3.400000e+01 -1.700000e+01 -2.000000e+01
      endloop
   endfacet
   facet normal 0.000000e+00 0.000000e+00 -1.000000e+00
      outer loop
         vertex 3.400000e+01 -1.700000e+01 -2.000000e+01
         vertex 1.000000e+01 -1.550000e+01 -2.000000e+01
         vertex 3.000000e+01 -1.550000e+01 -2.000000e+01
      endloop
   endfacet
   facet normal 0.000000e+00 0.000000e+00 -1.000000e+00
      outer loop
         vertex 3.400000e+01 -1.700000e+01 -2.000000e+01
         vertex 3.000000e+01 -1.550000e+01 -2.000000e+01
         vertex 3.400000e+01 -1.200000e+01 -2.000000e+01
      endloop
   endfacet
   facet normal 0.000000e+00 0.000000e+00 -1.000000e+00
      outer loop
         vertex 3.400000e+01 -1.200000e+01 -2.000000e+01
         vertex 3.000000e+01 -1.550000e+01 -2.000000e+01
         vertex 3.000000e+01 -1.350000e+01 -2.000000e+01
      endloop
   endfacet
   facet normal 0.000000e+00 0.000000e+00 -1.000000e+00
      outer loop
         vertex 3.400000e+01 -1.200000e+01 -2.000000e+01
         vertex 3.000000e+01 -1.350000e+01 -2.000000e+01
         vertex 1.000000e+01 -1.350000e+01 -2.000000e+01
      endloop
   endfacet
   facet normal 0.000000e+00 1.000000e+00 0.000000e+00
      outer loop
         vertex 2.000000e+00 0.000000e+00 0.000000e+00
         vertex 2.000000e+00 0.000000e+00 -2.000000e+01
         vertex 0.000000e+00 0.000000e+00 0.000000e+00
      endloop
   endfacet
   facet normal 0.000000e+00 1.000000e+00 0.000000e+00
      outer loop
         vertex 0.000000e+00 0.000000e+00 0.000000e+00
         vertex 2.000000e+00 0.000000e+00 -2.000000e+01
         vertex 0.000000e+00 0.000000e+00 -2.000000e+01
      endloop
   endfacet
   facet normal 1.000000e+00 0.000000e+00 0.000000e+00
      outer loop
         vertex 2.000000e+00 -1.200000e+01 -2.000000e+01
         vertex 2.000000e+00 0.000000e+00 -2.000000e+01
         vertex 2.000000e+00 -1.200000e+01 0.000000e+00
      endloop
   endfacet
   facet normal 1.000000e+00 -0.000000e+00 0.000000e+00
      outer loop
         vertex 2.000000e+00 -1.200000e+01 0.000000e+00
         vertex 2.000000e+00 0.000000e+00 -2.000000e+01
         vertex 2.000000e+00 0.000000e+00 0.000000e+00
      endloop
   endfacet
   facet normal -1.000000e+00 0.000000e+00 0.000000e+00
      outer loop
         vertex 0.000000e+00 0.000000e+00 -2.000000e+01
         vertex 0.000000e+00 -1.700000e+01 -2.000000e+01
         vertex 0.000000e+00 0.000000e+00 0.000000e+00
      endloop
   endfacet
   facet normal -1.000000e+00 0.000000e+00 0.000000e+00
      outer loop
         vertex 0.000000e+00 0.000000e+00 0.000000e+00
         vertex 0.000000e+00 -1.700000e+01 -2.000000e+01
         vertex 0.000000e+00 -1.700000e+01 -6.123234e-16
      endloop
   endfacet
   facet normal 0.000000e+00 1.000000e+00 0.000000e+00
      outer loop
         vertex 3.400000e+01 -1.200000e+01 -1.250000e+01
         vertex 3.400000e+01 -1.200000e+01 -2.000000e+01
         vertex 4.000000e+00 -1.200000e+01 -1.250000e+01
      endloop
   endfacet
   facet normal 0.000000e+00 1.000000e+00 0.000000e+00
      outer loop
         vertex 4.000000e+00 -1.200000e+01 -1.250000e+01
         vertex 3.400000e+01 -1.200000e+01 -2.000000e+01
         vertex 2.000000e+00 -1.200000e+01 -2.000000e+01
      endloop
   endfacet
   facet normal 0.000000e+00 1.000000e+00 -0.000000e+00
      outer loop
         vertex 4.000000e+00 -1.200000e+01 -1.250000e+01
         vertex 2.000000e+00 -1.200000e+01 -2.000000e+01
         vertex 4.000000e+00 -1.200000e+01 -7.500000e+00
      endloop
   endfacet
   facet normal 0.000000e+00 1.000000e+00 0.000000e+00
      outer loop
         vertex 4.000000e+00 -1.200000e+01 -7.500000e+00
         vertex 2.000000e+00 -1.200000e+01 -2.000000e+01
         vertex 2.000000e+00 -1.200000e+01 0.000000e+00
      endloop
   endfacet
   facet normal 0.000000e+00 1.000000e+00 -0.000000e+00
      outer loop
         vertex 4.000000e+00 -1.200000e+01 -7.500000e+00
         vertex 2.000000e+00 -1.200000e+01 0.000000e+00
         vertex 3.400000e+01 -1.200000e+01 -7.500000e+00
      endloop
   endfacet
   facet normal 0.000000e+00 1.000000e+00 -0.000000e+00
      outer loop
         vertex 3.400000e+01 -1.200000e+01 -7.500000e+00
         vertex 2.000000e+00 -1.200000e+01 0.000000e+00
         vertex 3.400000e+01 -1.200000e+01 0.000000e+00
      endloop
   endfacet
   facet normal -0.000000e+00 -1.000000e+00 -0.000000e+00
      outer loop
         vertex 3.400000e+01 -1.700000e+01 -6.123234e-16
         vertex 0.000000e+00 -1.700000e+01 -6.123234e-16
         vertex 3.400000e+01 -1.700000e+01 -2.000000e+01
      endloop
   endfacet
   facet normal 0.000000e+00 -1.000000e+00 0.000000e+00
      outer loop
         vertex 3.400000e+01 -1.700000e+01 -2.000000e+01
         vertex 0.000000e+00 -1.700000e+01 -6.123234e-16
         vertex 0.000000e+00 -1.700000e+01 -2.000000e+01
      endloop
   endfacet
   facet normal 1.000000e+00 0.000000e+00 -0.000000e+00
      outer loop
         vertex 3.400000e+01 -1.200000e+01 -7.500000e+00
         vertex 3.400000e+01 -1.200000e+01 0.000000e+00
         vertex 3.400000e+01 -1.550000e+01 -5.000000e+00
      endloop
   endfacet
   facet normal 1.000000e+00 0.000000e+00 -0.000000e+00
      outer loop
         vertex 3.400000e+01 -1.550000e+01 -5.000000e+00
         vertex 3.400000e+01 -1.200000e+01 0.000000e+00
         vertex 3.400000e+01 -1.700000e+01 -6.123234e-16
      endloop
   endfacet
   facet normal 1.000000e+00 0.000000e+00 0.000000e+00
      outer loop
         vertex 3.400000e+01 -1.550000e+01 -5.000000e+00
         vertex 3.400000e+01 -1.700000e+01 -6.123234e-16
         vertex 3.400000e+01 -1.550000e+01 -1.500000e+01
      endloop
   endfacet
   facet normal 1.000000e+00 0.000000e+00 0.000000e+00
      outer loop
         vertex 3.400000e+01 -1.550000e+01 -1.500000e+01
         vertex 3.400000e+01 -1.700000e+01 -6.123234e-16
         vertex 3.400000e+01 -1.700000e+01 -2.000000e+01
      endloop
   endfacet
   facet normal 1.000000e+00 -0.000000e+00 0.000000e+00
      outer loop
         vertex 3.400000e+01 -1.550000e+01 -1.500000e+01
         vertex 3.400000e+01 -1.700000e+01 -2.000000e+01
         vertex 3.400000e+01 -1.200000e+01 -1.250000e+01
      endloop
   endfacet
   facet normal 1.000000e+00 0.000000e+00 0.000000e+00
      outer loop
         vertex 3.400000e+01 -1.200000e+01 -1.250000e+01
         vertex 3.400000e+01 -1.700000e+01 -2.000000e+01
         vertex 3.400000e+01 -1.200000e+01 -2.000000e+01
      endloop
   endfacet
   facet normal 0.000000e+00 -5.812383e-01 8.137334e-01
      outer loop
         vertex 3.000000e+01 -1.550000e+01 -1.500000e+01
         vertex 3.400000e+01 -1.550000e+01 -1.500000e+01
         vertex 3.000000e+01 -1.350000e+01 -1.357143e+01
      endloop
   endfacet
   facet normal 1.391965e-07 -5.812382e-01 8.137335e-01
      outer loop
         vertex 3.000000e+01 -1.350000e+01 -1.357143e+01
         vertex 3.400000e+01 -1.550000e+01 -1.500000e+01
         vertex 3.400000e+01 -1.200000e+01 -1.250000e+01
      endloop
   endfacet
   facet normal 0.000000e+00 -5.812379e-01 8.137337e-01
      outer loop
         vertex 3.000000e+01 -1.350000e+01 -1.357143e+01
         vertex 3.400000e+01 -1.200000e+01 -1.250000e+01
         vertex 1.000000e+01 -1.350000e+01 -1.357143e+01
      endloop
   endfacet
   facet normal 0.000000e+00 -5.812379e-01 8.137337e-01
      outer loop
         vertex 1.000000e+01 -1.350000e+01 -1.357143e+01
         vertex 3.400000e+01 -1.200000e+01 -1.250000e+01
         vertex 4.000000e+00 -1.200000e+01 -1.250000e+01
      endloop
   endfacet
   facet normal -1.623961e-07 -5.812383e-01 8.137334e-01
      outer loop
         vertex 1.000000e+01 -1.350000e+01 -1.357143e+01
         vertex 4.000000e+00 -1.200000e+01 -1.250000e+01
         vertex 1.000000e+01 -1.550000e+01 -1.500000e+01
      endloop
   endfacet
   facet normal 0.000000e+00 -5.812382e-01 8.137335e-01
      outer loop
         vertex 1.000000e+01 -1.550000e+01 -1.500000e+01
         vertex 4.000000e+00 -1.200000e+01 -1.250000e+01
         vertex 4.000000e+00 -1.550000e+01 -1.500000e+01
      endloop
   endfacet
   facet normal 0.000000e+00 1.000000e+00 0.000000e+00
      outer loop
         vertex 3.400000e+01 -1.550000e+01 -5.000000e+00
         vertex 3.400000e+01 -1.550000e+01 -1.500000e+01
         vertex 3.000000e+01 -1.550000e+01 -5.000000e+00
      endloop
   endfacet
   facet normal 0.000000e+00 1.000000e+00 0.000000e+00
      outer loop
         vertex 3.000000e+01 -1.550000e+01 -5.000000e+00
         vertex 3.400000e+01 -1.550000e+01 -1.500000e+01
         vertex 3.000000e+01 -1.550000e+01 -1.500000e+01
      endloop
   endfacet
   facet normal 0.000000e+00 1.000000e+00 -0.000000e+00
      outer loop
         vertex 3.000000e+01 -1.550000e+01 -2.000000e+01
         vertex 1.000000e+01 -1.550000e+01 -2.000000e+01
         vertex 3.000000e+01 -1.550000e+01 -1.500000e+01
      endloop
   endfacet
   facet normal 0.000000e+00 1.000000e+00 0.000000e+00
      outer loop
         vertex 3.000000e+01 -1.550000e+01 -1.500000e+01
         vertex 1.000000e+01 -1.550000e+01 -2.000000e+01
         vertex 1.000000e+01 -1.550000e+01 -1.500000e+01
      endloop
   endfacet
   facet normal 0.000000e+00 1.000000e+00 0.000000e+00
      outer loop
         vertex 4.000000e+00 -1.550000e+01 -1.500000e+01
         vertex 4.000000e+00 -1.550000e+01 -5.000000e+00
         vertex 1.000000e+01 -1.550000e+01 -1.500000e+01
      endloop
   endfacet
   facet normal 0.000000e+00 1.000000e+00 -0.000000e+00
      outer loop
         vertex 1.000000e+01 -1.550000e+01 -1.500000e+01
         vertex 4.000000e+00 -1.550000e+01 -5.000000e+00
         vertex 1.000000e+01 -1.550000e+01 -5.000000e+00
      endloop
   endfacet
   facet normal 0.000000e+00 1.000000e+00 0.000000e+00
      outer loop
         vertex 1.000000e+01 -1.550000e+01 -1.500000e+01
         vertex 1.000000e+01 -1.550000e+01 -5.000000e+00
         vertex 3.000000e+01 -1.550000e+01 -1.500000e+01
      endloop
   endfacet
   facet normal 0.000000e+00 1.000000e+00 0.000000e+00
      outer loop
         vertex 3.000000e+01 -1.550000e+01 -1.500000e+01
         vertex 1.000000e+01 -1.550000e+01 -5.000000e+00
         vertex 1.000000e+01 -1.550000e+01 0.000000e+00
      endloop
   endfacet
   facet normal 0.000000e+00 1.000000e+00 -0.000000e+00
      outer loop
         vertex 3.000000e+01 -1.550000e+01 -1.500000e+01
         vertex 1.000000e+01 -1.550000e+01 0.000000e+00
         vertex 3.000000e+01 -1.550000e+01 -5.000000e+00
      endloop
   endfacet
   facet normal 0.000000e+00 1.000000e+00 -0.000000e+00
      outer loop
         vertex 3.000000e+01 -1.550000e+01 -5.000000e+00
         vertex 1.000000e+01 -1.550000e+01 0.000000e+00
         vertex 3.000000e+01 -1.550000e+01 0.000000e+00
      endloop
   endfacet
   facet normal 0.000000e+00 -5.812383e-01 -8.137334e-01
      outer loop
         vertex 1.000000e+01 -1.350000e+01 -6.428571e+00
         vertex 1.000000e+01 -1.550000e+01 -5.000000e+00
         vertex 4.000000e+00 -1.550000e+01 -5.000000e+00
      endloop
   endfacet
   facet normal 0.000000e+00 -5.812382e-01 -8.137334e-01
      outer loop
         vertex 3.400000e+01 -1.200000e+01 -7.500000e+00
         vertex 3.400000e+01 -1.550000e+01 -5.000000e+00
         vertex 3.000000e+01 -1.550000e+01 -5.000000e+00
      endloop
   endfacet
   facet normal 1.488630e-07 -5.812383e-01 -8.137334e-01
      outer loop
         vertex 3.000000e+01 -1.550000e+01 -5.000000e+00
         vertex 3.000000e+01 -1.350000e+01 -6.428571e+00
         vertex 3.400000e+01 -1.200000e+01 -7.500000e+00
      endloop
   endfacet
   facet normal 0.000000e+00 -5.812381e-01 -8.137336e-01
      outer loop
         vertex 3.400000e+01 -1.200000e+01 -7.500000e+00
         vertex 3.000000e+01 -1.350000e+01 -6.428571e+00
         vertex 1.000000e+01 -1.350000e+01 -6.428571e+00
      endloop
   endfacet
   facet normal -0.000000e+00 -5.812381e-01 -8.137336e-01
      outer loop
         vertex 3.400000e+01 -1.200000e+01 -7.500000e+00
         vertex 1.000000e+01 -1.350000e+01 -6.428571e+00
         vertex 4.000000e+00 -1.200000e+01 -7.500000e+00
      endloop
   endfacet
   facet normal -5.670975e-08 -5.812382e-01 -8.137334e-01
      outer loop
         vertex 4.000000e+00 -1.200000e+01 -7.500000e+00
         vertex 1.000000e+01 -1.350000e+01 -6.428571e+00
         vertex 4.000000e+00 -1.550000e+01 -5.000000e+00
      endloop
   endfacet
   facet normal 1.000000e+00 0.000000e+00 0.000000e+00
      outer loop
         vertex 4.000000e+00 -1.200000e+01 -7.500000e+00
         vertex 4.000000e+00 -1.550000e+01 -5.000000e+00
         vertex 4.000000e+00 -1.200000e+01 -1.250000e+01
      endloop
   endfacet
   facet normal 1.000000e+00 0.000000e+00 0.000000e+00
      outer loop
         vertex 4.000000e+00 -1.200000e+01 -1.250000e+01
         vertex 4.000000e+00 -1.550000e+01 -5.000000e+00
         vertex 4.000000e+00 -1.550000e+01 -1.500000e+01
      endloop
   endfacet
   facet normal 0.000000e+00 -1.000000e+00 0.000000e+00
      outer loop
         vertex 1.000000e+01 -1.350000e+01 0.000000e+00
         vertex 1.000000e+01 -1.350000e+01 -6.428571e+00
         vertex 3.000000e+01 -1.350000e+01 -1.653273e-15
      endloop
   endfacet
   facet normal 0.000000e+00 -1.000000e+00 -0.000000e+00
      outer loop
         vertex 3.000000e+01 -1.350000e+01 -1.653273e-15
         vertex 1.000000e+01 -1.350000e+01 -6.428571e+00
         vertex 3.000000e+01 -1.350000e+01 -6.428571e+00
      endloop
   endfacet
   facet normal -1.000000e+00 -0.000000e+00 -0.000000e+00
      outer loop
         vertex 3.000000e+01 -1.350000e+01 -1.653273e-15
         vertex 3.000000e+01 -1.350000e+01 -6.428571e+00
         vertex 3.000000e+01 -1.550000e+01 0.000000e+00
      endloop
   endfacet
   facet normal -1.000000e+00 0.000000e+00 0.000000e+00
      outer loop
         vertex 3.000000e+01 -1.550000e+01 0.000000e+00
         vertex 3.000000e+01 -1.350000e+01 -6.428571e+00
         vertex 3.000000e+01 -1.550000e+01 -5.000000e+00
      endloop
   endfacet
   facet normal 1.000000e+00 -0.000000e+00 0.000000e+00
      outer loop
         vertex 1.000000e+01 -1.550000e+01 0.000000e+00
         vertex 1.000000e+01 -1.550000e+01 -5.000000e+00
         vertex 1.000000e+01 -1.350000e+01 0.000000e+00
      endloop
   endfacet
   facet normal 1.000000e+00 0.000000e+00 0.000000e+00
      outer loop
         vertex 1.000000e+01 -1.350000e+01 0.000000e+00
         vertex 1.000000e+01 -1.550000e+01 -5.000000e+00
         vertex 1.000000e+01 -1.350000e+01 -6.428571e+00
      endloop
   endfacet
   facet normal 1.000000e+00 0.000000e+00 -0.000000e+00
      outer loop
         vertex 1.000000e+01 -1.350000e+01 -2.000000e+01
         vertex 1.000000e+01 -1.350000e+01 -1.357143e+01
         vertex 1.000000e+01 -1.550000e+01 -2.000000e+01
      endloop
   endfacet
   facet normal 1.000000e+00 0.000000e+00 0.000000e+00
      outer loop
         vertex 1.000000e+01 -1.550000e+01 -2.000000e+01
         vertex 1.000000e+01 -1.350000e+01 -1.357143e+01
         vertex 1.000000e+01 -1.550000e+01 -1.500000e+01
      endloop
   endfacet
   facet normal -1.000000e+00 0.000000e+00 0.000000e+00
      outer loop
         vertex 3.000000e+01 -1.550000e+01 -2.000000e+01
         vertex 3.000000e+01 -1.550000e+01 -1.500000e+01
         vertex 3.000000e+01 -1.350000e+01 -2.000000e+01
      endloop
   endfacet
   facet normal -1.000000e+00 0.000000e+00 0.000000e+00
      outer loop
         vertex 3.000000e+01 -1.350000e+01 -2.000000e+01
         vertex 3.000000e+01 -1.550000e+01 -1.500000e+01
         vertex 3.000000e+01 -1.350000e+01 -1.357143e+01
      endloop
   endfacet
   facet normal 0.000000e+00 -1.000000e+00 0.000000e+00
      outer loop
         vertex 3.000000e+01 -1.350000e+01 -2.000000e+01
         vertex 3.000000e+01 -1.350000e+01 -1.357143e+01
         vertex 1.000000e+01 -1.350000e+01 -2.000000e+01
      endloop
   endfacet
   facet normal 0.000000e+00 -1.000000e+00 0.000000e+00
      outer loop
         vertex 1.000000e+01 -1.350000e+01 -2.000000e+01
         vertex 3.000000e+01 -1.350000e+01 -1.357143e+01
         vertex 1.000000e+01 -1.350000e+01 -1.357143e+01
      endloop
   endfacet
endsolid