solid IMU holder base
   facet normal 0.000000e+00 1.000000e+00 -0.000000e+00
      outer loop
         vertex 2.200000e+01 -1.200000e+01 -2.000000e+01
         vertex 2.000000e+00 -1.200000e+01 -2.000000e+01
         vertex 2.200000e+01 -1.200000e+01 -1.250000e+01
      endloop
   endfacet
   facet normal 0.000000e+00 1.000000e+00 0.000000e+00
      outer loop
         vertex 2.200000e+01 -1.200000e+01 -1.250000e+01
         vertex 2.000000e+00 -1.200000e+01 -2.000000e+01
         vertex 2.000000e+00 -1.200000e+01 -1.250000e+01
      endloop
   endfacet
   facet normal -1.637090e-23 -1.224648e-16 1.000000e+00
      outer loop
         vertex -4.487800e+00 -1.526114e+01 -1.868951e-15
         vertex 7.695285e+00 -1.550000e+01 -1.898202e-15
         vertex -4.487800e+00 -1.350000e+01 -1.653273e-15
      endloop
   endfacet
   facet normal 0.000000e+00 -1.224647e-16 1.000000e+00
      outer loop
         vertex -4.487800e+00 -1.350000e+01 -1.653273e-15
         vertex 7.695285e+00 -1.550000e+01 -1.898202e-15
         vertex 7.695285e+00 -1.350000e+01 -1.653273e-15
      endloop
   endfacet
   facet normal 0.000000e+00 -1.224647e-16 1.000000e+00
      outer loop
         vertex -1.300000e+01 -1.350000e+01 -1.653273e-15
         vertex -4.487800e+00 -1.350000e+01 -1.653273e-15
         vertex 2.000000e+00 -1.200000e+01 -1.469576e-15
      endloop
   endfacet
   facet normal 0.000000e+00 -1.224647e-16 1.000000e+00
      outer loop
         vertex 2.000000e+00 -1.200000e+01 -1.469576e-15
         vertex -4.487800e+00 -1.350000e+01 -1.653273e-15
         vertex 7.695285e+00 -1.350000e+01 -1.653273e-15
      endloop
   endfacet
   facet normal 0.000000e+00 -1.224647e-16 1.000000e+00
      outer loop
         vertex 2.000000e+00 -1.200000e+01 -1.469576e-15
         vertex 7.695285e+00 -1.350000e+01 -1.653273e-15
         vertex 2.200000e+01 -1.200000e+01 -1.469576e-15
      endloop
   endfacet
   facet normal 0.000000e+00 -1.224647e-16 1.000000e+00
      outer loop
         vertex 2.200000e+01 -1.200000e+01 -1.469576e-15
         vertex 7.695285e+00 -1.350000e+01 -1.653273e-15
         vertex 1.700000e+01 -1.350000e+01 -1.653273e-15
      endloop
   endfacet
   facet normal 0.000000e+00 -1.224647e-16 1.000000e+00
      outer loop
         vertex 2.200000e+01 -1.200000e+01 -1.469576e-15
         vertex 1.700000e+01 -1.350000e+01 -1.653273e-15
         vertex 2.200000e+01 -1.700000e+01 -2.081900e-15
      endloop
   endfacet
   facet normal -3.729796e-24 -1.224647e-16 1.000000e+00
      outer loop
         vertex 2.200000e+01 -1.700000e+01 -2.081900e-15
         vertex 1.700000e+01 -1.350000e+01 -1.653273e-15
         vertex 1.700000e+01 -1.550000e+01 -1.898202e-15
      endloop
   endfacet
   facet normal 0.000000e+00 -1.224647e-16 1.000000e+00
      outer loop
         vertex 1.700000e+01 -1.550000e+01 -1.898202e-15
         vertex 7.695285e+00 -1.550000e+01 -1.898202e-15
         vertex 2.200000e+01 -1.700000e+01 -2.081900e-15
      endloop
   endfacet
   facet normal -1.743105e-23 -1.224648e-16 1.000000e+00
      outer loop
         vertex 2.200000e+01 -1.700000e+01 -2.081900e-15
         vertex 7.695285e+00 -1.550000e+01 -1.898202e-15
         vertex -4.487800e+00 -1.526114e+01 -1.868951e-15
      endloop
   endfacet
   facet normal 0.000000e+00 -1.224646e-16 1.000000e+00
      outer loop
         vertex 2.200000e+01 -1.700000e+01 -2.081900e-15
         vertex -4.487800e+00 -1.526114e+01 -1.868951e-15
         vertex -1.800000e+01 -1.700000e+01 -2.081900e-15
      endloop
   endfacet
   facet normal 0.000000e+00 -1.224646e-16 1.000000e+00
      outer loop
         vertex -1.800000e+01 -1.700000e+01 -2.081900e-15
         vertex -4.487800e+00 -1.526114e+01 -1.868951e-15
         vertex -1.300000e+01 -1.526114e+01 -1.868951e-15
      endloop
   endfacet
   facet normal 3.700247e-23 -1.224647e-16 1.000000e+00
      outer loop
         vertex -1.800000e+01 -1.700000e+01 -2.081900e-15
         vertex -1.300000e+01 -1.526114e+01 -1.868951e-15
         vertex -1.800000e+01 -1.200000e+01 -1.469576e-15
      endloop
   endfacet
   facet normal -3.151572e-23 -1.224648e-16 1.000000e+00
      outer loop
         vertex -1.800000e+01 -1.200000e+01 -1.469576e-15
         vertex -1.300000e+01 -1.526114e+01 -1.868951e-15
         vertex -1.300000e+01 -1.350000e+01 -1.653273e-15
      endloop
   endfacet
   facet normal 0.000000e+00 -1.224647e-16 1.000000e+00
      outer loop
         vertex -1.800000e+01 -1.200000e+01 -1.469576e-15
         vertex -1.300000e+01 -1.350000e+01 -1.653273e-15
         vertex 0.000000e+00 -1.200000e+01 -1.469576e-15
      endloop
   endfacet
   facet normal 0.000000e+00 -1.224647e-16 1.000000e+00
      outer loop
         vertex 0.000000e+00 -1.200000e+01 -1.469576e-15
         vertex -1.300000e+01 -1.350000e+01 -1.653273e-15
         vertex 2.000000e+00 -1.200000e+01 -1.469576e-15
      endloop
   endfacet
   facet normal 0.000000e+00 -1.224647e-16 1.000000e+00
      outer loop
         vertex 0.000000e+00 -1.200000e+01 -1.469576e-15
         vertex 2.000000e+00 -1.200000e+01 -1.469576e-15
         vertex 0.000000e+00 0.000000e+00 0.000000e+00
      endloop
   endfacet
   facet normal 0.000000e+00 -1.224647e-16 1.000000e+00
      outer loop
         vertex 0.000000e+00 0.000000e+00 0.000000e+00
         vertex 2.000000e+00 -1.200000e+01 -1.469576e-15
         vertex 2.000000e+00 0.000000e+00 0.000000e+00
      endloop
   endfacet
   facet normal 0.000000e+00 0.000000e+00 -1.000000e+00
      outer loop
         vertex -1.800000e+01 -1.700000e+01 -2.000000e+01
         vertex 7.695285e+00 -1.550000e+01 -2.000000e+01
         vertex 2.200000e+01 -1.700000e+01 -2.000000e+01
      endloop
   endfacet
   facet normal 0.000000e+00 0.000000e+00 -1.000000e+00
      outer loop
         vertex 2.200000e+01 -1.700000e+01 -2.000000e+01
         vertex 7.695285e+00 -1.550000e+01 -2.000000e+01
         vertex 1.700000e+01 -1.550000e+01 -2.000000e+01
      endloop
   endfacet
   facet normal 0.000000e+00 0.000000e+00 -1.000000e+00
      outer loop
         vertex 2.200000e+01 -1.700000e+01 -2.000000e+01
         vertex 1.700000e+01 -1.550000e+01 -2.000000e+01
         vertex 2.200000e+01 -1.200000e+01 -2.000000e+01
      endloop
   endfacet
   facet normal 0.000000e+00 0.000000e+00 -1.000000e+00
      outer loop
         vertex -1.800000e+01 -1.700000e+01 -2.000000e+01
         vertex -1.800000e+01 -1.200000e+01 -2.000000e+01
         vertex -1.300000e+01 -1.350000e+01 -2.000000e+01
      endloop
   endfacet
   facet normal 0.000000e+00 0.000000e+00 -1.000000e+00
      outer loop
         vertex -1.300000e+01 -1.350000e+01 -2.000000e+01
         vertex -1.800000e+01 -1.200000e+01 -2.000000e+01
         vertex 0.000000e+00 -1.200000e+01 -2.000000e+01
      endloop
   endfacet
   facet normal 0.000000e+00 0.000000e+00 -1.000000e+00
      outer loop
         vertex -1.300000e+01 -1.350000e+01 -2.000000e+01
         vertex 0.000000e+00 -1.200000e+01 -2.000000e+01
         vertex -4.487800e+00 -1.350000e+01 -2.000000e+01
      endloop
   endfacet
   facet normal 0.000000e+00 -0.000000e+00 -1.000000e+00
      outer loop
         vertex -1.300000e+01 -1.350000e+01 -2.000000e+01
         vertex -1.300000e+01 -1.526114e+01 -2.000000e+01
         vertex -1.800000e+01 -1.700000e+01 -2.000000e+01
      endloop
   endfacet
   facet normal 0.000000e+00 0.000000e+00 -1.000000e+00
      outer loop
         vertex -1.800000e+01 -1.700000e+01 -2.000000e+01
         vertex -1.300000e+01 -1.526114e+01 -2.000000e+01
         vertex -4.487800e+00 -1.526114e+01 -2.000000e+01
      endloop
   endfacet
   facet normal 0.000000e+00 0.000000e+00 -1.000000e+00
      outer loop
         vertex -1.800000e+01 -1.700000e+01 -2.000000e+01
         vertex -4.487800e+00 -1.526114e+01 -2.000000e+01
         vertex 7.695285e+00 -1.550000e+01 -2.000000e+01
      endloop
   endfacet
   facet normal 0.000000e+00 0.000000e+00 -1.000000e+00
      outer loop
         vertex 7.695285e+00 -1.550000e+01 -2.000000e+01
         vertex -4.487800e+00 -1.526114e+01 -2.000000e+01
         vertex 2.000000e+00 -1.200000e+01 -2.000000e+01
      endloop
   endfacet
   facet normal 0.000000e+00 0.000000e+00 -1.000000e+00
      outer loop
         vertex 7.695285e+00 -1.550000e+01 -2.000000e+01
         vertex 2.000000e+00 -1.200000e+01 -2.000000e+01
         vertex 7.695285e+00 -1.350000e+01 -2.000000e+01
      endloop
   endfacet
   facet normal 0.000000e+00 0.000000e+00 -1.000000e+00
      outer loop
         vertex 7.695285e+00 -1.350000e+01 -2.000000e+01
         vertex 2.000000e+00 -1.200000e+01 -2.000000e+01
         vertex 2.200000e+01 -1.200000e+01 -2.000000e+01
      endloop
   endfacet
   facet normal 0.000000e+00 0.000000e+00 -1.000000e+00
      outer loop
         vertex 7.695285e+00 -1.350000e+01 -2.000000e+01
         vertex 2.200000e+01 -1.200000e+01 -2.000000e+01
         vertex 1.700000e+01 -1.350000e+01 -2.000000e+01
      endloop
   endfacet
   facet normal 0.000000e+00 0.000000e+00 -1.000000e+00
      outer loop
         vertex 1.700000e+01 -1.350000e+01 -2.000000e+01
         vertex 2.200000e+01 -1.200000e+01 -2.000000e+01
         vertex 1.700000e+01 -1.550000e+01 -2.000000e+01
      endloop
   endfacet
   facet normal 0.000000e+00 0.000000e+00 -1.000000e+00
      outer loop
         vertex 0.000000e+00 0.000000e+00 -2.000000e+01
         vertex 2.000000e+00 0.000000e+00 -2.000000e+01
         vertex 0.000000e+00 -1.200000e+01 -2.000000e+01
      endloop
   endfacet
   facet normal 0.000000e+00 0.000000e+00 -1.000000e+00
      outer loop
         vertex 0.000000e+00 -1.200000e+01 -2.000000e+01
         vertex 2.000000e+00 0.000000e+00 -2.000000e+01
         vertex 2.000000e+00 -1.200000e+01 -2.000000e+01
      endloop
   endfacet
   facet normal 0.000000e+00 -0.000000e+00 -1.000000e+00
      outer loop
         vertex 0.000000e+00 -1.200000e+01 -2.000000e+01
         vertex 2.000000e+00 -1.200000e+01 -2.000000e+01
         vertex -4.487800e+00 -1.350000e+01 -2.000000e+01
      endloop
   endfacet
   facet normal 0.000000e+00 0.000000e+00 -1.000000e+00
      outer loop
         vertex -4.487800e+00 -1.350000e+01 -2.000000e+01
         vertex 2.000000e+00 -1.200000e+01 -2.000000e+01
         vertex -4.487800e+00 -1.526114e+01 -2.000000e+01
      endloop
   endfacet
   facet normal 0.000000e+00 1.000000e+00 0.000000e+00
      outer loop
         vertex 2.000000e+00 0.000000e+00 0.000000e+00
         vertex 2.000000e+00 0.000000e+00 -2.000000e+01
         vertex 0.000000e+00 0.000000e+00 0.000000e+00
      endloop
   endfacet
   facet normal 0.000000e+00 1.000000e+00 0.000000e+00
      outer loop
         vertex 0.000000e+00 0.000000e+00 0.000000e+00
         vertex 2.000000e+00 0.000000e+00 -2.000000e+01
         vertex 0.000000e+00 0.000000e+00 -2.000000e+01
      endloop
   endfacet
   facet normal 1.000000e+00 0.000000e+00 0.000000e+00
      outer loop
         vertex 2.000000e+00 0.000000e+00 0.000000e+00
         vertex 2.000000e+00 -1.200000e+01 0.000000e+00
         vertex 2.000000e+00 0.000000e+00 -2.000000e+01
      endloop
   endfacet
   facet normal 1.000000e+00 0.000000e+00 0.000000e+00
      outer loop
         vertex 2.000000e+00 0.000000e+00 -2.000000e+01
         vertex 2.000000e+00 -1.200000e+01 0.000000e+00
         vertex 2.000000e+00 -1.200000e+01 -7.500000e+00
      endloop
   endfacet
   facet normal 1.000000e+00 0.000000e+00 0.000000e+00
      outer loop
         vertex 2.000000e+00 -1.200000e+01 -2.000000e+01
         vertex 2.000000e+00 0.000000e+00 -2.000000e+01
         vertex 2.000000e+00 -1.200000e+01 -1.250000e+01
      endloop
   endfacet
   facet normal 1.000000e+00 -0.000000e+00 0.000000e+00
      outer loop
         vertex 2.000000e+00 -1.200000e+01 -1.250000e+01
         vertex 2.000000e+00 0.000000e+00 -2.000000e+01
         vertex 2.000000e+00 -1.200000e+01 -7.500000e+00
      endloop
   endfacet
   facet normal 1.000000e+00 0.000000e+00 -0.000000e+00
      outer loop
         vertex 2.000000e+00 -1.200000e+01 -1.250000e+01
         vertex 2.000000e+00 -1.200000e+01 -7.500000e+00
         vertex 2.000000e+00 -1.550000e+01 -1.500000e+01
      endloop
   endfacet
   facet normal 1.000000e+00 0.000000e+00 0.000000e+00
      outer loop
         vertex 2.000000e+00 -1.550000e+01 -1.500000e+01
         vertex 2.000000e+00 -1.200000e+01 -7.500000e+00
         vertex 2.000000e+00 -1.550000e+01 -5.000000e+00
      endloop
   endfacet
   facet normal -1.000000e+00 0.000000e+00 0.000000e+00
      outer loop
         vertex 0.000000e+00 0.000000e+00 -2.000000e+01
         vertex 0.000000e+00 -1.200000e+01 -2.000000e+01
         vertex 0.000000e+00 0.000000e+00 0.000000e+00
      endloop
   endfacet
   facet normal -1.000000e+00 -0.000000e+00 0.000000e+00
      outer loop
         vertex 0.000000e+00 0.000000e+00 0.000000e+00
         vertex 0.000000e+00 -1.200000e+01 -2.000000e+01
         vertex 0.000000e+00 -1.200000e+01 0.000000e+00
      endloop
   endfacet
   facet normal -0.000000e+00 1.000000e+00 0.000000e+00
      outer loop
         vertex 2.000000e+00 -1.200000e+01 0.000000e+00
         vertex 2.200000e+01 -1.200000e+01 0.000000e+00
         vertex 2.000000e+00 -1.200000e+01 -7.500000e+00
      endloop
   endfacet
   facet normal 0.000000e+00 1.000000e+00 0.000000e+00
      outer loop
         vertex 2.000000e+00 -1.200000e+01 -7.500000e+00
         vertex 2.200000e+01 -1.200000e+01 0.000000e+00
         vertex 2.200000e+01 -1.200000e+01 -7.500000e+00
      endloop
   endfacet
   facet normal 0.000000e+00 1.000000e+00 -0.000000e+00
      outer loop
         vertex 0.000000e+00 -1.200000e+01 -2.000000e+01
         vertex -1.800000e+01 -1.200000e+01 -2.000000e+01
         vertex 0.000000e+00 -1.200000e+01 0.000000e+00
      endloop
   endfacet
   facet normal 0.000000e+00 1.000000e+00 0.000000e+00
      outer loop
         vertex 0.000000e+00 -1.200000e+01 0.000000e+00
         vertex -1.800000e+01 -1.200000e+01 -2.000000e+01
         vertex -1.800000e+01 -1.200000e+01 0.000000e+00
      endloop
   endfacet
   facet normal -0.000000e+00 -1.000000e+00 -0.000000e+00
      outer loop
         vertex 2.200000e+01 -1.700000e+01 -6.123234e-16
         vertex -1.800000e+01 -1.700000e+01 -6.123234e-16
         vertex 2.200000e+01 -1.700000e+01 -2.000000e+01
      endloop
   endfacet
   facet normal 0.000000e+00 -1.000000e+00 0.000000e+00
      outer loop
         vertex 2.200000e+01 -1.700000e+01 -2.000000e+01
         vertex -1.800000e+01 -1.700000e+01 -6.123234e-16
         vertex -1.800000e+01 -1.700000e+01 -2.000000e+01
      endloop
   endfacet
   facet normal -1.000000e+00 0.000000e+00 0.000000e+00
      outer loop
         vertex -1.800000e+01 -1.200000e+01 -2.000000e+01
         vertex -1.800000e+01 -1.700000e+01 -2.000000e+01
         vertex -1.800000e+01 -1.200000e+01 0.000000e+00
      endloop
   endfacet
   facet normal -1.000000e+00 0.000000e+00 0.000000e+00
      outer loop
         vertex -1.800000e+01 -1.200000e+01 0.000000e+00
         vertex -1.800000e+01 -1.700000e+01 -2.000000e+01
         vertex -1.800000e+01 -1.700000e+01 -6.123234e-16
      endloop
   endfacet
   facet normal 1.000000e+00 0.000000e+00 -0.000000e+00
      outer loop
         vertex 2.200000e+01 -1.200000e+01 -7.500000e+00
         vertex 2.200000e+01 -1.200000e+01 0.000000e+00
         vertex 2.200000e+01 -1.550000e+01 -5.000000e+00
      endloop
   endfacet
   facet normal 1.000000e+00 0.000000e+00 -0.000000e+00
      outer loop
         vertex 2.200000e+01 -1.550000e+01 -5.000000e+00
         vertex 2.200000e+01 -1.200000e+01 0.000000e+00
         vertex 2.200000e+01 -1.700000e+01 -6.123234e-16
      endloop
   endfacet
   facet normal 1.000000e+00 0.000000e+00 0.000000e+00
      outer loop
         vertex 2.200000e+01 -1.550000e+01 -5.000000e+00
         vertex 2.200000e+01 -1.700000e+01 -6.123234e-16
         vertex 2.200000e+01 -1.550000e+01 -1.500000e+01
      endloop
   endfacet
   facet normal 1.000000e+00 0.000000e+00 0.000000e+00
      outer loop
         vertex 2.200000e+01 -1.550000e+01 -1.500000e+01
         vertex 2.200000e+01 -1.700000e+01 -6.123234e-16
         vertex 2.200000e+01 -1.700000e+01 -2.000000e+01
      endloop
   endfacet
   facet normal 1.000000e+00 -0.000000e+00 0.000000e+00
      outer loop
         vertex 2.200000e+01 -1.550000e+01 -1.500000e+01
         vertex 2.200000e+01 -1.700000e+01 -2.000000e+01
         vertex 2.200000e+01 -1.200000e+01 -1.250000e+01
      endloop
   endfacet
   facet normal 1.000000e+00 0.000000e+00 0.000000e+00
      outer loop
         vertex 2.200000e+01 -1.200000e+01 -1.250000e+01
         vertex 2.200000e+01 -1.700000e+01 -2.000000e+01
         vertex 2.200000e+01 -1.200000e+01 -2.000000e+01
      endloop
   endfacet
   facet normal 0.000000e+00 -5.812383e-01 8.137334e-01
      outer loop
         vertex 1.700000e+01 -1.550000e+01 -1.500000e+01
         vertex 2.200000e+01 -1.550000e+01 -1.500000e+01
         vertex 1.700000e+01 -1.350000e+01 -1.357143e+01
      endloop
   endfacet
   facet normal 1.113573e-07 -5.812382e-01 8.137335e-01
      outer loop
         vertex 1.700000e+01 -1.350000e+01 -1.357143e+01
         vertex 2.200000e+01 -1.550000e+01 -1.500000e+01
         vertex 2.200000e+01 -1.200000e+01 -1.250000e+01
      endloop
   endfacet
   facet normal 0.000000e+00 -5.812379e-01 8.137337e-01
      outer loop
         vertex 1.700000e+01 -1.350000e+01 -1.357143e+01
         vertex 2.200000e+01 -1.200000e+01 -1.250000e+01
         vertex 7.695285e+00 -1.350000e+01 -1.357143e+01
      endloop
   endfacet
   facet normal 0.000000e+00 -5.812379e-01 8.137337e-01
      outer loop
         vertex 7.695285e+00 -1.350000e+01 -1.357143e+01
         vertex 2.200000e+01 -1.200000e+01 -1.250000e+01
         vertex 2.000000e+00 -1.200000e+01 -1.250000e+01
      endloop
   endfacet
   facet normal -1.710848e-07 -5.812383e-01 8.137334e-01
      outer loop
         vertex 7.695285e+00 -1.350000e+01 -1.357143e+01
         vertex 2.000000e+00 -1.200000e+01 -1.250000e+01
         vertex 7.695285e+00 -1.550000e+01 -1.500000e+01
      endloop
   endfacet
   facet normal 0.000000e+00 -5.812382e-01 8.137335e-01
      outer loop
         vertex 7.695285e+00 -1.550000e+01 -1.500000e+01
         vertex 2.000000e+00 -1.200000e+01 -1.250000e+01
         vertex 2.000000e+00 -1.550000e+01 -1.500000e+01
      endloop
   endfacet
   facet normal -0.000000e+00 1.000000e+00 0.000000e+00
      outer loop
         vertex 7.695285e+00 -1.550000e+01 0.000000e+00
         vertex 1.700000e+01 -1.550000e+01 0.000000e+00
         vertex 7.695285e+00 -1.550000e+01 -5.000000e+00
      endloop
   endfacet
   facet normal 0.000000e+00 1.000000e+00 0.000000e+00
      outer loop
         vertex 7.695285e+00 -1.550000e+01 -5.000000e+00
         vertex 1.700000e+01 -1.550000e+01 0.000000e+00
         vertex 1.700000e+01 -1.550000e+01 -5.000000e+00
      endloop
   endfacet
   facet normal 0.000000e+00 1.000000e+00 -0.000000e+00
      outer loop
         vertex 1.700000e+01 -1.550000e+01 -2.000000e+01
         vertex 7.695285e+00 -1.550000e+01 -2.000000e+01
         vertex 1.700000e+01 -1.550000e+01 -1.500000e+01
      endloop
   endfacet
   facet normal 0.000000e+00 1.000000e+00 0.000000e+00
      outer loop
         vertex 1.700000e+01 -1.550000e+01 -1.500000e+01
         vertex 7.695285e+00 -1.550000e+01 -2.000000e+01
         vertex 7.695285e+00 -1.550000e+01 -1.500000e+01
      endloop
   endfacet
   facet normal 0.000000e+00 1.000000e+00 0.000000e+00
      outer loop
         vertex 2.000000e+00 -1.550000e+01 -1.500000e+01
         vertex 2.000000e+00 -1.550000e+01 -5.000000e+00
         vertex 7.695285e+00 -1.550000e+01 -1.500000e+01
      endloop
   endfacet
   facet normal 0.000000e+00 1.000000e+00 -0.000000e+00
      outer loop
         vertex 7.695285e+00 -1.550000e+01 -1.500000e+01
         vertex 2.000000e+00 -1.550000e+01 -5.000000e+00
         vertex 7.695285e+00 -1.550000e+01 -5.000000e+00
      endloop
   endfacet
   facet normal 0.000000e+00 1.000000e+00 0.000000e+00
      outer loop
         vertex 7.695285e+00 -1.550000e+01 -1.500000e+01
         vertex 7.695285e+00 -1.550000e+01 -5.000000e+00
         vertex 1.700000e+01 -1.550000e+01 -1.500000e+01
      endloop
   endfacet
   facet normal 0.000000e+00 1.000000e+00 -0.000000e+00
      outer loop
         vertex 1.700000e+01 -1.550000e+01 -1.500000e+01
         vertex 7.695285e+00 -1.550000e+01 -5.000000e+00
         vertex 1.700000e+01 -1.550000e+01 -5.000000e+00
      endloop
   endfacet
   facet normal 0.000000e+00 1.000000e+00 0.000000e+00
      outer loop
         vertex 1.700000e+01 -1.550000e+01 -1.500000e+01
         vertex 1.700000e+01 -1.550000e+01 -5.000000e+00
         vertex 2.200000e+01 -1.550000e+01 -1.500000e+01
      endloop
   endfacet
   facet normal 0.000000e+00 1.000000e+00 -0.000000e+00
      outer loop
         vertex 2.200000e+01 -1.550000e+01 -1.500000e+01
         vertex 1.700000e+01 -1.550000e+01 -5.000000e+00
         vertex 2.200000e+01 -1.550000e+01 -5.000000e+00
      endloop
   endfacet
   facet normal 0.000000e+00 -5.812383e-01 -8.137334e-01
      outer loop
         vertex 7.695285e+00 -1.350000e+01 -6.428571e+00
         vertex 7.695285e+00 -1.550000e+01 -5.000000e+00
         vertex 2.000000e+00 -1.550000e+01 -5.000000e+00
      endloop
   endfacet
   facet normal 0.000000e+00 -5.812382e-01 -8.137334e-01
      outer loop
         vertex 2.200000e+01 -1.200000e+01 -7.500000e+00
         vertex 2.200000e+01 -1.550000e+01 -5.000000e+00
         vertex 1.700000e+01 -1.550000e+01 -5.000000e+00
      endloop
   endfacet
   facet normal 1.190905e-07 -5.812383e-01 -8.137334e-01
      outer loop
         vertex 1.700000e+01 -1.550000e+01 -5.000000e+00
         vertex 1.700000e+01 -1.350000e+01 -6.428571e+00
         vertex 2.200000e+01 -1.200000e+01 -7.500000e+00
      endloop
   endfacet
   facet normal 0.000000e+00 -5.812381e-01 -8.137336e-01
      outer loop
         vertex 2.200000e+01 -1.200000e+01 -7.500000e+00
         vertex 1.700000e+01 -1.350000e+01 -6.428571e+00
         vertex 7.695285e+00 -1.350000e+01 -6.428571e+00
      endloop
   endfacet
   facet normal -0.000000e+00 -5.812381e-01 -8.137336e-01
      outer loop
         vertex 2.200000e+01 -1.200000e+01 -7.500000e+00
         vertex 7.695285e+00 -1.350000e+01 -6.428571e+00
         vertex 2.000000e+00 -1.200000e+01 -7.500000e+00
      endloop
   endfacet
   facet normal -5.974389e-08 -5.812382e-01 -8.137334e-01
      outer loop
         vertex 2.000000e+00 -1.200000e+01 -7.500000e+00
         vertex 7.695285e+00 -1.350000e+01 -6.428571e+00
         vertex 2.000000e+00 -1.550000e+01 -5.000000e+00
      endloop
   endfacet
   facet normal 0.000000e+00 -1.000000e+00 0.000000e+00
      outer loop
         vertex 7.695285e+00 -1.350000e+01 0.000000e+00
         vertex 7.695285e+00 -1.350000e+01 -6.428571e+00
         vertex 1.700000e+01 -1.350000e+01 -1.653273e-15
      endloop
   endfacet
   facet normal 0.000000e+00 -1.000000e+00 -0.000000e+00
      outer loop
         vertex 1.700000e+01 -1.350000e+01 -1.653273e-15
         vertex 7.695285e+00 -1.350000e+01 -6.428571e+00
         vertex 1.700000e+01 -1.350000e+01 -6.428571e+00
      endloop
   endfacet
   facet normal -1.000000e+00 -0.000000e+00 -0.000000e+00
      outer loop
         vertex 1.700000e+01 -1.350000e+01 -1.653273e-15
         vertex 1.700000e+01 -1.350000e+01 -6.428571e+00
         vertex 1.700000e+01 -1.550000e+01 0.000000e+00
      endloop
   endfacet
   facet normal -1.000000e+00 0.000000e+00 0.000000e+00
      outer loop
         vertex 1.700000e+01 -1.550000e+01 0.000000e+00
         vertex 1.700000e+01 -1.350000e+01 -6.428571e+00
         vertex 1.700000e+01 -1.550000e+01 -5.000000e+00
      endloop
   endfacet
   facet normal 1.000000e+00 -0.000000e+00 0.000000e+00
      outer loop
         vertex 7.695285e+00 -1.550000e+01 0.000000e+00
         vertex 7.695285e+00 -1.550000e+01 -5.000000e+00
         vertex 7.695285e+00 -1.350000e+01 0.000000e+00
      endloop
   endfacet
   facet normal 1.000000e+00 0.000000e+00 0.000000e+00
      outer loop
         vertex 7.695285e+00 -1.350000e+01 0.000000e+00
         vertex 7.695285e+00 -1.550000e+01 -5.000000e+00
         vertex 7.695285e+00 -1.350000e+01 -6.428571e+00
      endloop
   endfacet
   facet normal 1.000000e+00 0.000000e+00 -0.000000e+00
      outer loop
         vertex 7.695285e+00 -1.350000e+01 -2.000000e+01
         vertex 7.695285e+00 -1.350000e+01 -1.357143e+01
         vertex 7.695285e+00 -1.550000e+01 -2.000000e+01
      endloop
   endfacet
   facet normal 1.000000e+00 0.000000e+00 0.000000e+00
      outer loop
         vertex 7.695285e+00 -1.550000e+01 -2.000000e+01
         vertex 7.695285e+00 -1.350000e+01 -1.357143e+01
         vertex 7.695285e+00 -1.550000e+01 -1.500000e+01
      endloop
   endfacet
   facet normal -1.000000e+00 0.000000e+00 0.000000e+00
      outer loop
         vertex 1.700000e+01 -1.550000e+01 -2.000000e+01
         vertex 1.700000e+01 -1.550000e+01 -1.500000e+01
         vertex 1.700000e+01 -1.350000e+01 -2.000000e+01
      endloop
   endfacet
   facet normal -1.000000e+00 0.000000e+00 0.000000e+00
      outer loop
         vertex 1.700000e+01 -1.350000e+01 -2.000000e+01
         vertex 1.700000e+01 -1.550000e+01 -1.500000e+01
         vertex 1.700000e+01 -1.350000e+01 -1.357143e+01
      endloop
   endfacet
   facet normal 0.000000e+00 -1.000000e+00 0.000000e+00
      outer loop
         vertex 1.700000e+01 -1.350000e+01 -2.000000e+01
         vertex 1.700000e+01 -1.350000e+01 -1.357143e+01
         vertex 7.695285e+00 -1.350000e+01 -2.000000e+01
      endloop
   endfacet
   facet normal 0.000000e+00 -1.000000e+00 0.000000e+00
      outer loop
         vertex 7.695285e+00 -1.350000e+01 -2.000000e+01
         vertex 1.700000e+01 -1.350000e+01 -1.357143e+01
         vertex 7.695285e+00 -1.350000e+01 -1.357143e+01
      endloop
   endfacet
   facet normal -1.000000e+00 0.000000e+00 0.000000e+00
      outer loop
         vertex -4.487800e+00 -1.526114e+01 0.000000e+00
         vertex -4.487800e+00 -1.350000e+01 0.000000e+00
         vertex -4.487800e+00 -1.526114e+01 -2.000000e+01
      endloop
   endfacet
   facet normal -1.000000e+00 0.000000e+00 0.000000e+00
      outer loop
         vertex -4.487800e+00 -1.526114e+01 -2.000000e+01
         vertex -4.487800e+00 -1.350000e+01 0.000000e+00
         vertex -4.487800e+00 -1.350000e+01 -2.000000e+01
      endloop
   endfacet
   facet normal -0.000000e+00 -1.000000e+00 -0.000000e+00
      outer loop
         vertex -4.487800e+00 -1.350000e+01 0.000000e+00
         vertex -1.300000e+01 -1.350000e+01 0.000000e+00
         vertex -4.487800e+00 -1.350000e+01 -2.000000e+01
      endloop
   endfacet
   facet normal 0.000000e+00 -1.000000e+00 0.000000e+00
      outer loop
         vertex -4.487800e+00 -1.350000e+01 -2.000000e+01
         vertex -1.300000e+01 -1.350000e+01 0.000000e+00
         vertex -1.300000e+01 -1.350000e+01 -2.000000e+01
      endloop
   endfacet
   facet normal 1.000000e+00 0.000000e+00 0.000000e+00
      outer loop
         vertex -1.300000e+01 -1.350000e+01 0.000000e+00
         vertex -1.300000e+01 -1.526114e+01 -1.868951e-15
         vertex -1.300000e+01 -1.350000e+01 -2.000000e+01
      endloop
   endfacet
   facet normal 1.000000e+00 0.000000e+00 0.000000e+00
      outer loop
         vertex -1.300000e+01 -1.350000e+01 -2.000000e+01
         vertex -1.300000e+01 -1.526114e+01 -1.868951e-15
         vertex -1.300000e+01 -1.526114e+01 -2.000000e+01
      endloop
   endfacet
   facet normal -0.000000e+00 1.000000e+00 0.000000e+00
      outer loop
         vertex -1.300000e+01 -1.526114e+01 -1.868951e-15
         vertex -4.487800e+00 -1.526114e+01 0.000000e+00
         vertex -1.300000e+01 -1.526114e+01 -2.000000e+01
      endloop
   endfacet
   facet normal 0.000000e+00 1.000000e+00 0.000000e+00
      outer loop
         vertex -1.300000e+01 -1.526114e+01 -2.000000e+01
         vertex -4.487800e+00 -1.526114e+01 0.000000e+00
         vertex -4.487800e+00 -1.526114e+01 -2.000000e+01
      endloop
   endfacet
endsolid